<svg width="3840" height="2160" viewBox="0 0 3840 2160" fill="none" xmlns="http://www.w3.org/2000/svg">
  <defs>
    <linearGradient id="base" x1="0" y1="0" x2="3840" y2="2160" gradientUnits="userSpaceOnUse">
      <stop stop-color="#060606"/>
      <stop offset="0.5" stop-color="#121212"/>
      <stop offset="1" stop-color="#1F1F1F"/>
    </linearGradient>
    <radialGradient id="glow" cx="0" cy="0" r="1" gradientTransform="translate(2930 945) rotate(90) scale(1030 1110)" gradientUnits="userSpaceOnUse">
      <stop stop-color="#FF6B00" stop-opacity="0.48"/>
      <stop offset="0.35" stop-color="#FF6B00" stop-opacity="0.2"/>
      <stop offset="1" stop-color="#FF6B00" stop-opacity="0"/>
    </radialGradient>
    <radialGradient id="warmth" cx="0" cy="0" r="1" gradientTransform="translate(2380 1520) rotate(90) scale(690 940)" gradientUnits="userSpaceOnUse">
      <stop stop-color="#FF8833" stop-opacity="0.13"/>
      <stop offset="1" stop-color="#FF8833" stop-opacity="0"/>
    </radialGradient>
    <filter id="noise" x="-10%" y="-10%" width="120%" height="120%">
      <feTurbulence type="fractalNoise" baseFrequency="0.8" numOctaves="3" seed="23" stitchTiles="stitch"/>
      <feColorMatrix type="saturate" values="0"/>
    </filter>
    <filter id="soften" x="-20%" y="-20%" width="140%" height="140%">
      <feGaussianBlur stdDeviation="8"/>
    </filter>
  </defs>
  <rect width="3840" height="2160" fill="url(#base)"/>
  <rect width="3840" height="2160" fill="url(#glow)"/>
  <rect width="3840" height="2160" fill="url(#warmth)"/>
  <g opacity="0.15" stroke="#FF8833">
    <ellipse cx="2870" cy="1020" rx="955" ry="760" stroke-width="2"/>
    <ellipse cx="2870" cy="1020" rx="725" ry="560" stroke-width="2"/>
    <path d="M1660 260C2320 40 3280 300 3620 885" stroke-width="2" stroke-dasharray="10 24"/>
    <path d="M1840 1840C2370 2040 3270 1810 3630 1270" stroke-width="2" stroke-dasharray="8 28"/>
  </g>
  <g opacity="0.08" stroke="white">
    <circle cx="530" cy="1930" r="910" stroke-width="2"/>
    <circle cx="3700" cy="-80" r="760" stroke-width="2"/>
  </g>
  <g fill="#FF8833" filter="url(#soften)">
    <circle cx="2550" cy="410" r="5"/>
    <circle cx="3330" cy="740" r="4"/>
    <circle cx="3490" cy="1370" r="6"/>
    <circle cx="2160" cy="1740" r="3"/>
  </g>
  <rect width="3840" height="2160" filter="url(#noise)" opacity="0.035"/>
</svg>